<?xml version="1.0" standalone="no"?>
<!DOCTYPE svg PUBLIC "-//W3C//DTD SVG 20010904//EN"
 "http://www.w3.org/TR/2001/REC-SVG-20010904/DTD/svg10.dtd">
<svg version="1.0" xmlns="http://www.w3.org/2000/svg"
 width="543.000000pt" height="271.000000pt" viewBox="0 0 543.000000 271.000000"
 preserveAspectRatio="xMidYMid meet">

<g transform="translate(0.000000,271.000000) scale(0.100000,-0.100000)"
fill="#000000" stroke="none">
<path d="M2270 1804 c-168 -45 -286 -185 -313 -372 -11 -78 -14 -83 -46 -100
-51 -27 -71 -73 -71 -160 0 -130 54 -195 160 -190 l55 3 5 235 5 236 33 66
c62 126 173 193 307 186 84 -5 145 -32 204 -91 89 -87 101 -138 101 -427 0
-197 -3 -230 -19 -265 -31 -68 -93 -105 -177 -105 -38 0 -51 5 -74 30 -35 37
-72 39 -105 5 -29 -28 -32 -56 -9 -89 28 -44 89 -41 122 6 10 14 27 18 70 19
31 0 72 6 90 13 48 17 100 72 119 128 17 47 19 48 58 48 91 0 145 71 145 192
0 88 -20 134 -72 160 -33 17 -36 23 -42 76 -15 125 -65 223 -154 303 -109 98
-249 131 -392 93z m186 -25 c178 -33 312 -189 322 -375 l4 -82 38 -11 c53 -16
71 -40 77 -108 10 -115 -28 -181 -111 -190 l-45 -5 -3 233 c-3 229 -4 235 -30
291 -130 277 -502 284 -639 11 l-34 -68 -3 -234 -4 -233 -44 5 c-77 8 -114 63
-114 167 0 67 26 112 76 129 l42 15 4 85 c3 72 9 97 37 153 55 111 153 188
271 214 71 16 85 16 156 3z m-38 -977 c-2 -23 -8 -27 -33 -27 -24 0 -31 5 -33
24 -5 32 23 54 50 40 13 -7 18 -19 16 -37z"/>
<path d="M3151 1678 c-25 -13 -59 -40 -75 -61 l-31 -39 0 -292 0 -293 29 -37
c37 -49 78 -73 138 -81 41 -6 57 -3 103 20 75 36 105 87 108 181 l2 69 -61 3
-62 3 -4 -60 c-5 -70 -26 -101 -69 -101 -56 0 -59 18 -59 302 0 254 0 257 22
272 50 35 96 8 105 -63 l6 -41 64 0 65 0 -7 53 c-15 110 -76 174 -176 183 -44
4 -63 1 -98 -18z"/>
<path d="M562 1346 l3 -344 30 -44 c39 -55 93 -82 167 -83 47 0 64 6 100 30
25 18 52 49 66 75 21 43 22 52 22 377 l0 333 -65 0 -65 0 0 -330 c0 -317 -1
-331 -20 -350 -26 -26 -60 -25 -88 0 -22 21 -22 24 -22 350 l0 330 -65 0 -66
0 3 -344z"/>
<path d="M1054 1644 c3 -26 6 -208 6 -405 l0 -359 65 0 65 0 2 223 3 222 82
-220 81 -220 66 -3 66 -3 0 406 0 405 -65 0 -65 0 0 -227 -1 -228 -86 228 -85
227 -71 0 -70 0 7 -46z"/>
<path d="M1600 1285 l0 -405 65 0 65 0 0 405 0 405 -65 0 -65 0 0 -405z"/>
<path d="M3510 1285 l0 -405 65 0 65 0 0 170 0 170 65 0 65 0 0 -170 0 -170
65 0 65 0 0 405 0 405 -65 0 -65 0 -2 -172 -3 -173 -62 -3 -63 -3 0 176 0 175
-65 0 -65 0 0 -405z"/>
<path d="M4145 1678 c-2 -7 -27 -114 -54 -238 -28 -124 -66 -294 -85 -379 -20
-85 -36 -161 -36 -168 0 -9 18 -13 63 -13 l63 0 13 65 13 66 91 -3 92 -3 14
-62 14 -63 64 0 c35 0 63 3 63 6 0 4 -32 147 -70 318 -39 171 -78 343 -86 381
-9 39 -18 78 -21 88 -3 14 -16 17 -69 17 -43 0 -66 -4 -69 -12z m104 -428 c15
-67 25 -122 22 -123 -3 -1 -31 0 -62 3 l-56 5 23 105 c33 146 36 157 41 142 3
-7 17 -66 32 -132z"/>
<path d="M4400 1630 l0 -60 75 0 75 0 0 -345 0 -345 65 0 65 0 0 345 0 345 70
0 70 0 0 60 0 60 -210 0 -210 0 0 -60z"/>
<path d="M2253 1460 c-4 -16 -14 -20 -50 -20 -31 0 -43 -4 -41 -12 3 -8 29
-14 71 -16 70 -3 79 -11 53 -44 -12 -17 -14 -17 -31 2 -26 29 -43 9 -21 -25
16 -25 16 -25 -19 -42 -19 -9 -35 -20 -35 -24 0 -19 23 -18 58 1 l39 22 34
-21 c40 -25 49 -26 49 -7 0 8 -13 23 -29 32 l-29 17 21 44 c13 27 28 43 39 43
10 0 18 7 18 15 0 11 -12 15 -45 15 -38 0 -45 3 -45 20 0 12 -7 20 -16 20 -9
0 -18 -9 -21 -20z"/>
<path d="M2407 1284 c-89 -178 -102 -214 -77 -214 10 0 200 376 200 396 0 45
-37 -9 -123 -182z"/>
<path d="M2437 1195 c-26 -52 -47 -102 -47 -111 0 -33 27 -5 65 69 22 42 42
77 45 77 6 0 30 -50 30 -62 0 -4 -11 -8 -25 -8 -42 0 -31 -28 12 -32 30 -2 41
-9 51 -30 13 -29 26 -35 37 -18 8 13 -93 210 -108 210 -7 0 -34 -43 -60 -95z"/>
</g>
</svg>
